<?xml version="1.0" encoding="UTF-8"?>
<svg id="Isolation_Mode" data-name="Isolation Mode" xmlns="http://www.w3.org/2000/svg" xmlns:xlink="http://www.w3.org/1999/xlink" version="1.1" viewBox="0 0 110 110">
  <defs>
    <style>
      .cls-1 {
        fill: url(#linear-gradient);
      }

      .cls-1, .cls-2, .cls-3 {
        stroke-width: 0px;
      }

      .cls-2 {
        fill: url(#linear-gradient-2);
      }

      .cls-3 {
        fill: #fff;
      }
    </style>
    <linearGradient id="linear-gradient" x1="24.3" y1="84.7" x2="24.3" y2="47.1" gradientUnits="userSpaceOnUse">
      <stop offset="0" stop-color="#00004c" stop-opacity=".8"/>
      <stop offset=".2" stop-color="rgba(0, 0, 76, .6)" stop-opacity=".6"/>
      <stop offset=".5" stop-color="rgba(0, 0, 76, .2)" stop-opacity=".2"/>
      <stop offset=".8" stop-color="#00004c" stop-opacity="0"/>
    </linearGradient>
    <linearGradient id="linear-gradient-2" x1="64.3" y1="40.6" x2="101.9" y2="40.6" xlink:href="#linear-gradient"/>
  </defs>
  <path class="cls-3" d="M31.1,80.6l9.4-16.1c-2.3-3.5-5.1-6.7-8.4-9.3-6.4,5.1-15,8.2-23.9,8.2h0c11.7,0,21.7,9.5,21.7,21.3h0c0-1.4.3-2.8,1.1-4.1Z"/>
  <path class="cls-1" d="M31.1,80.6l9.4-16.1c-2.3-3.5-5.1-6.7-8.4-9.3-6.4,5.1-15,8.2-23.9,8.2h0c11.7,0,21.7,9.5,21.7,21.3h0c0-1.4.3-2.8,1.1-4.1Z"/>
  <path class="cls-3" d="M101.8,47.1c-11.7,0-21.2-9.6-21.2-21.3h0c0,1.4-.3,2.8-1.1,4.1l-9.4,16.1c2.3,3.5,5.1,6.7,8.4,9.3,6.4-5.1,14.5-8.1,23.3-8.2h0Z"/>
  <path class="cls-2" d="M101.8,47.1c-11.7,0-21.2-9.6-21.2-21.3h0c0,1.4-.3,2.8-1.1,4.1l-9.4,16.1c2.3,3.5,5.1,6.7,8.4,9.3,6.4-5.1,14.5-8.1,23.3-8.2h0Z"/>
  <path class="cls-3" d="M46.3,25.8c0-4.5-3.7-8.2-8.2-8.2s-8.2,3.7-8.2,8.2c0,11.7-9.5,21.2-21.1,21.3,0,0,0,0-.1,0-.1,0-.3,0-.4,0v16.3h0c8.8,0,17.4-3,23.9-8.2,8.7-6.9,14.2-17.5,14.2-29.4Z"/>
  <path class="cls-3" d="M78.5,55.3c-8.7,6.9-14.2,17.5-14.2,29.4s3.6,8.2,8.1,8.2h0c4.5,0,8.1-3.7,8.1-8.2,0-11.7,9.5-21.2,21.1-21.2v-16.3c-8.7,0-16.8,3.1-23.2,8.2Z"/>
  <path class="cls-3" d="M80.6,25.8c0-2.8-1.4-5.5-4.1-7.1-3.9-2.3-8.9-1-11.2,2.9l-25,42.8-9.4,16.1c-.8,1.3-1.1,2.7-1.1,4.1,0,2.8,1.4,5.5,4.1,7.1,1.3.7,2.7,1.1,4.1,1.1h0c2.8,0,5.5-1.5,7-4.1l25-42.8,9.4-16.1c.8-1.3,1.1-2.7,1.1-4.1Z"/>
</svg>